<svg width="504" height="549" viewBox="0 0 504 549" fill="none" xmlns="http://www.w3.org/2000/svg">
<path d="M119.655 509.709C119.655 503.894 179.552 499.183 253.426 499.183C327.301 499.183 387.205 503.894 387.205 509.709C387.205 515.523 327.316 520.235 253.426 520.235C179.537 520.235 119.655 515.538 119.655 509.709Z" fill="#E9EFFF"/>
<path d="M282.472 335.182C293.701 320.878 316.242 293.293 357.79 279.189M335.042 289.07C337.057 289.367 342.813 291.426 347.894 296.693M339.598 286.722C341.079 283.019 343.39 276.352 343.657 272.648M320.731 297.871C321.998 294.789 324.027 286.656 323.464 283.907M313.961 302.863C316.924 302.619 323.368 301.248 329.805 307.197M303.331 311.967C304.812 307.908 307.472 301.9 304.257 298.078M298.761 316.419C302.464 315.552 307.005 314.53 313.309 318.419M292.835 322.715C293.753 317.53 293.346 312.167 291.198 309.619M284.331 332.819C288.035 331.337 295.183 329.545 300.39 333.323" stroke="#807DFB" stroke-width="2" stroke-linecap="round" stroke-linejoin="round"/>
<path d="M364.694 280.174C365.179 279.479 365.447 278.655 365.464 277.808C365.482 276.96 365.247 276.126 364.791 275.411C364.334 274.697 363.676 274.134 362.9 273.793C362.123 273.452 361.263 273.35 360.428 273.497C359.593 273.645 358.821 274.038 358.209 274.624C357.597 275.211 357.172 275.966 356.989 276.794C356.806 277.622 356.872 278.485 357.179 279.276C357.487 280.066 358.022 280.747 358.716 281.234C359.178 281.557 359.699 281.786 360.25 281.908C360.8 282.03 361.37 282.042 361.925 281.944C362.48 281.845 363.01 281.638 363.486 281.335C363.961 281.031 364.371 280.637 364.694 280.174ZM346.642 273.974C347.016 273.442 347.223 272.81 347.237 272.16C347.252 271.509 347.073 270.869 346.723 270.32C346.374 269.771 345.869 269.338 345.274 269.076C344.678 268.814 344.018 268.735 343.378 268.848C342.737 268.961 342.144 269.261 341.674 269.711C341.204 270.161 340.878 270.74 340.738 271.376C340.597 272.011 340.648 272.674 340.884 273.28C341.12 273.886 341.531 274.409 342.064 274.782C342.779 275.279 343.662 275.474 344.52 275.322C345.377 275.171 346.141 274.687 346.642 273.974ZM352.02 299.923C352.391 299.391 352.596 298.761 352.609 298.112C352.623 297.464 352.444 296.826 352.095 296.28C351.746 295.733 351.243 295.302 350.649 295.041C350.055 294.78 349.397 294.701 348.759 294.813C348.12 294.926 347.529 295.226 347.06 295.674C346.592 296.122 346.266 296.699 346.125 297.332C345.985 297.965 346.034 298.626 346.269 299.231C346.503 299.836 346.911 300.357 347.442 300.73C347.795 300.978 348.194 301.154 348.616 301.248C349.037 301.342 349.473 301.352 349.899 301.277C350.324 301.202 350.73 301.044 351.094 300.811C351.458 300.579 351.773 300.277 352.02 299.923ZM325.531 283.915C325.905 283.383 326.114 282.752 326.129 282.101C326.145 281.451 325.967 280.81 325.619 280.261C325.27 279.711 324.766 279.277 324.171 279.014C323.576 278.751 322.916 278.671 322.275 278.783C321.634 278.895 321.041 279.194 320.57 279.644C320.099 280.093 319.773 280.672 319.631 281.307C319.49 281.942 319.54 282.605 319.775 283.212C320.01 283.818 320.42 284.342 320.953 284.715C321.667 285.213 322.549 285.409 323.407 285.259C324.265 285.109 325.028 284.626 325.531 283.915ZM317.205 320.249C317.575 319.716 317.779 319.086 317.791 318.438C317.803 317.789 317.623 317.152 317.273 316.606C316.923 316.06 316.42 315.63 315.825 315.37C315.231 315.11 314.574 315.032 313.935 315.145C313.297 315.259 312.706 315.559 312.238 316.008C311.77 316.457 311.446 317.035 311.306 317.668C311.166 318.301 311.217 318.962 311.452 319.566C311.687 320.17 312.096 320.691 312.627 321.064C312.981 321.312 313.38 321.489 313.802 321.583C314.224 321.676 314.66 321.686 315.086 321.61C315.511 321.534 315.918 321.375 316.281 321.141C316.645 320.908 316.959 320.604 317.205 320.249ZM293.02 309.975C293.393 309.442 293.6 308.81 293.615 308.16C293.629 307.509 293.45 306.869 293.101 306.32C292.751 305.771 292.247 305.339 291.651 305.076C291.056 304.814 290.396 304.735 289.755 304.848C289.114 304.961 288.522 305.261 288.052 305.711C287.582 306.161 287.256 306.741 287.115 307.376C286.975 308.011 287.026 308.674 287.262 309.28C287.498 309.887 287.909 310.409 288.442 310.782C289.156 311.281 290.039 311.477 290.898 311.326C291.756 311.174 292.519 310.688 293.02 309.975ZM332.923 309.863C333.348 309.264 333.584 308.553 333.603 307.819C333.622 307.085 333.422 306.362 333.03 305.742C332.637 305.122 332.069 304.632 331.397 304.336C330.726 304.039 329.981 303.949 329.258 304.076C328.535 304.203 327.867 304.542 327.337 305.051C326.807 305.559 326.44 306.213 326.283 306.93C326.126 307.647 326.185 308.394 326.453 309.078C326.722 309.761 327.187 310.349 327.79 310.767C328.592 311.323 329.581 311.54 330.543 311.371C331.504 311.202 332.36 310.66 332.923 309.863ZM306.968 298.967C307.391 298.367 307.626 297.655 307.644 296.922C307.662 296.188 307.461 295.465 307.067 294.846C306.674 294.226 306.105 293.738 305.433 293.442C304.761 293.147 304.017 293.057 303.294 293.185C302.571 293.314 301.903 293.654 301.374 294.163C300.845 294.671 300.479 295.326 300.323 296.043C300.166 296.76 300.226 297.508 300.496 298.19C300.765 298.873 301.231 299.461 301.834 299.878C302.637 300.434 303.627 300.65 304.589 300.479C305.55 300.308 306.405 299.765 306.968 298.967ZM304.768 336.701C305.192 336.102 305.428 335.39 305.447 334.656C305.466 333.922 305.267 333.199 304.874 332.579C304.481 331.959 303.913 331.47 303.242 331.173C302.57 330.876 301.826 330.786 301.103 330.913C300.38 331.04 299.711 331.38 299.181 331.888C298.651 332.396 298.285 333.05 298.127 333.767C297.97 334.484 298.029 335.232 298.297 335.915C298.566 336.598 299.031 337.186 299.634 337.604C300.437 338.161 301.426 338.378 302.387 338.208C303.348 338.039 304.204 337.497 304.768 336.701Z" fill="#9F9CFF"/>
<path d="M309.398 428.931C297.916 399.442 316.516 376.397 352.783 367.812C357.835 396.501 343.924 431.183 309.398 428.931Z" fill="#7B61FF"/>
<path d="M295.316 427.679C267.597 403.523 274.308 369.782 306.997 341.397C327.664 368.197 332.057 411.375 295.316 427.679Z" fill="#20196F"/>
<path d="M225.649 429.397C234.175 419.604 246.886 388.575 224.863 370.019C214.893 361.619 211.782 359.989 206.567 360.626C203.174 361.041 200.552 363.086 198.13 361.226C193.686 357.841 206.449 341.715 191.567 327.893C176.685 314.071 164.352 322.056 160.382 318.263C156.411 314.471 160.174 306.908 151.196 303.13C142.219 299.352 135.767 313.634 123.567 310.33C110.878 306.9 88.6035 305.767 85.4109 317.552C82.2183 329.337 92.1517 331.523 95.3888 339.315C98.6258 347.108 91.7369 370.204 110.485 375.278C129.115 380.315 136.745 379.515 139.159 403.101C141.574 426.686 163.019 437.916 174.611 435.805C186.204 433.693 183.285 439.745 177.293 443.101C171.3 446.456 180.723 451.456 189.286 450.397C197.849 449.338 214.982 441.686 225.649 429.397Z" fill="#DDE2F8"/>
<path d="M229.205 434.908C199.197 379.982 148.152 342.145 106.359 325.53M138.997 341.923C138.952 338.893 140.478 326.145 144.182 319.56M130.641 337.086C126.034 338.212 116.108 343.752 113.552 345.775M172.019 365.686C171.56 361.123 171.13 351.893 177.945 340.078M159.589 355.819C155.219 355.863 141.812 361.745 136.226 364.893M194.982 387.597C188.575 388.153 182.019 392.619 177.345 395.241M206.604 401.101C205.182 395.175 206.856 383.701 210.019 375.834" stroke="#CED3F8" stroke-width="2" stroke-linecap="round" stroke-linejoin="round"/>
<path d="M279.879 439.842C278.531 434.375 311.242 392.686 319.62 398.42C326.153 402.864 321.561 409.909 319.694 412.331C316.731 416.146 309.079 424.849 312.249 426.575C317.975 429.709 334.568 405.212 338.975 399.494C343.383 393.775 353.501 383.871 361.472 384.575C369.442 385.279 372.583 386.479 364.302 396.049C356.02 405.62 337.375 422.464 346.627 422.405C355.879 422.346 367.309 405.916 377.324 398.909C387.339 391.901 408.776 381.953 408.835 391.094C408.887 399.286 376.672 415.538 381.665 419.42C385.665 422.501 392.694 414.768 406.65 406.775C420.606 398.783 433.872 391.368 439.383 399.227C443.828 405.538 433.798 408.768 426.324 413.175C418.85 417.583 408.672 424.116 413.213 426.042C417.754 427.968 452.206 402.946 461.65 411.501C467.88 417.19 458.828 420.205 450.421 425.827C442.013 431.449 439.465 434.057 441.132 435.324C442.798 436.59 455.369 430.879 462.191 427.546C469.013 424.212 479.932 421.761 483.258 428.012C486.584 434.264 475.11 438.464 470.495 439.042C465.88 439.62 461.754 442.109 461.932 443.487C462.109 444.864 477.435 444.049 476.613 452.005C475.791 459.961 461.058 459.309 454.739 454.427C448.42 449.546 439.687 443.168 437.909 445.479C436.132 447.79 443.457 453.442 449.228 457.894C454.998 462.346 456.28 465.435 455.087 466.976C451.132 472.109 440.272 470.635 436.065 467.383C431.857 464.131 410.576 442.812 407.917 446.22C405.257 449.627 414.109 456.783 418.776 460.376C423.443 463.968 434.332 472.368 429.887 478.087C425.443 483.805 408.45 475.576 399.991 468.176C391.531 460.775 378.739 447.746 376.709 450.398C374.679 453.05 383.168 465.213 388.828 469.568C394.487 473.924 406.835 478.857 401.42 485.909C396.005 492.961 386.242 487.709 375.124 479.131C370.479 475.546 359.072 466.538 355.864 457.85C352.161 447.924 348.739 443.583 346.39 444.324C341.709 445.805 346.109 454.101 350.583 459.309C355.057 464.516 369.961 479.872 360.746 485.39C351.531 490.909 342.701 475.502 338.524 469.657C334.346 463.813 321.486 441.946 316.672 444.731C311.857 447.516 321.731 457.227 324.464 460.568C327.198 463.909 330.664 472.627 326.649 473.161C322.635 473.694 282.286 449.612 279.879 439.842Z" fill="#E9EDF7"/>
<path d="M27.5737 387.271C17.8181 390.664 11.6106 383.152 8.31433 378.382C11.3662 377.582 23.9514 375.026 27.5737 387.271Z" fill="#6B67E9"/>
<path d="M100.959 440.909C87.752 423.938 60.8259 400.834 26.1443 386.545" stroke="#6B67E9" stroke-width="2" stroke-linecap="round" stroke-linejoin="round"/>
<path d="M95.048 427.153C89.5294 407.042 102.981 399.693 113.011 393.679C114.241 399.982 120.211 421.523 95.048 427.153ZM80.9886 412.945C72.6849 398.405 81.6701 389.982 88.2702 383.316C90.4776 387.975 99.4258 403.538 80.9886 412.945ZM62.9219 400.819C53.0552 390.345 58.8774 381.516 63.0478 374.612C65.8256 378.041 76.4627 389.249 62.9219 400.819ZM44.5514 390.545C36.8477 386.004 38.7958 379.73 40.1069 374.886C42.344 376.456 50.6181 381.301 44.5514 390.545ZM86.1294 433.39C69.3738 425.797 61.0996 436.494 54.47 444.397C59.7811 446.338 77.7294 454.538 86.1294 433.39ZM70.5367 418.227C57.2774 409.501 48.7959 417.486 42.0847 423.36C46.3588 425.723 60.5589 435.123 70.5367 418.227ZM49.5292 403.153C39.1588 399.93 35.1143 406.79 31.818 411.901C35.0551 412.642 46.1588 416.131 49.5292 403.153ZM34.6477 393.99C29.055 391.027 26.0032 394.538 23.5365 397.108C25.3513 397.886 31.3291 401.071 34.6477 393.99Z" fill="#6B67E9"/>
<path d="M205.012 494.797C219.523 485.271 255.279 415.019 227.168 401.404C200.501 388.501 192.078 443.449 190.486 450.59C184.938 423.619 177.671 397.449 159.893 402.212C142.115 406.975 159.893 445.034 159.893 445.034C143.7 424.427 103.345 392.678 84.9742 402.204C66.6038 411.73 122.286 445.908 122.286 445.908C96.9817 431.553 21.3665 412.227 96.8854 448.708C62.3148 437.523 -5.11513 432.034 69.8334 455.375C24.7221 451.457 1.82565 457.597 1.03305 463.945C0.240452 470.294 13.4998 479.242 71.7741 480.723C42.9814 485.479 28.5369 492.22 35.9517 494.797H205.012Z" fill="#9491EB"/>
<path d="M108.404 460.894C108.404 460.431 108.266 459.978 108.009 459.594C107.752 459.209 107.386 458.909 106.959 458.731C106.531 458.554 106.06 458.508 105.606 458.598C105.152 458.689 104.735 458.911 104.408 459.239C104.08 459.566 103.857 459.983 103.767 460.437C103.677 460.891 103.723 461.362 103.9 461.79C104.077 462.217 104.377 462.583 104.762 462.84C105.147 463.097 105.6 463.235 106.063 463.235C106.37 463.236 106.675 463.176 106.96 463.059C107.244 462.941 107.503 462.769 107.72 462.551C107.938 462.334 108.11 462.075 108.227 461.791C108.345 461.506 108.405 461.202 108.404 460.894ZM188.804 474.679C188.805 473.965 188.595 473.267 188.2 472.673C187.804 472.079 187.241 471.615 186.582 471.341C185.923 471.067 185.198 470.994 184.497 471.133C183.797 471.271 183.154 471.614 182.648 472.118C182.143 472.623 181.799 473.265 181.659 473.965C181.519 474.665 181.59 475.391 181.863 476.051C182.136 476.71 182.598 477.274 183.192 477.671C183.785 478.067 184.483 478.279 185.197 478.279C186.152 478.279 187.068 477.9 187.745 477.225C188.421 476.55 188.802 475.635 188.804 474.679ZM141.878 447.975C141.879 447.365 141.7 446.768 141.362 446.261C141.024 445.753 140.542 445.357 139.979 445.122C139.416 444.888 138.795 444.827 138.197 444.945C137.599 445.064 137.049 445.358 136.617 445.789C136.186 446.22 135.892 446.77 135.774 447.369C135.655 447.967 135.717 448.587 135.951 449.151C136.185 449.714 136.581 450.195 137.089 450.533C137.597 450.871 138.194 451.051 138.804 451.049C139.619 451.049 140.401 450.726 140.977 450.149C141.554 449.573 141.878 448.791 141.878 447.975Z" fill="white"/>
<path d="M441.576 122.944C459.68 135.9 478.613 127.24 490.784 104.011C472.11 95.5366 446.05 98.9959 441.576 122.944Z" fill="#CED3F8"/>
<path d="M431.931 122.566C464.524 118.122 476.102 89.5514 465.576 52.2476C436.946 62.1513 412.442 92.3144 431.931 122.566Z" fill="#E9EDF7"/>
<path d="M431.931 122.566C437.176 109.759 453.783 80.507 461.857 61.0476" stroke="white" stroke-width="2" stroke-linecap="round" stroke-linejoin="round"/>
<path d="M433.776 110.751H347.331C335.671 110.751 326.22 120.203 326.22 131.862V201.307C326.22 212.967 335.671 222.418 347.331 222.418H433.776C445.435 222.418 454.887 212.967 454.887 201.307V131.862C454.887 120.203 445.435 110.751 433.776 110.751Z" fill="white"/>
<path d="M444.206 114.996C446.983 119.051 448.466 123.852 448.458 128.767V194.382C448.458 197.22 447.898 200.031 446.811 202.653C445.724 205.275 444.131 207.657 442.123 209.663C440.115 211.669 437.731 213.26 435.108 214.344C432.485 215.428 429.674 215.985 426.835 215.982H344.235C339.321 215.991 334.52 214.511 330.464 211.737C332.707 215.029 335.719 217.722 339.239 219.584C342.76 221.445 346.682 222.419 350.664 222.419H430.443C436.926 222.419 443.143 219.843 447.728 215.259C452.312 210.675 454.887 204.457 454.887 197.974V135.196C454.887 131.214 453.914 127.292 452.052 123.771C450.19 120.251 447.497 117.238 444.206 114.996Z" fill="#7B61FF"/>
<path d="M367.886 131.833C369.343 130.585 370.879 129.434 372.487 128.388C374.178 127.294 375.968 126.361 377.835 125.603C379.847 124.783 381.933 124.155 384.064 123.729C386.441 123.262 388.858 123.034 391.279 123.048C394.563 123.013 397.83 123.513 400.953 124.529C403.674 125.409 406.192 126.822 408.361 128.685C410.412 130.475 412.043 132.696 413.139 135.188C414.297 137.867 414.875 140.76 414.835 143.677C414.893 146.337 414.459 148.984 413.553 151.485C412.78 153.543 411.701 155.473 410.353 157.211C409.113 158.786 407.685 160.204 406.102 161.433C404.561 162.618 403.097 163.724 401.709 164.751C400.44 165.685 399.24 166.707 398.116 167.811C397.167 168.713 396.516 169.884 396.25 171.166L394.768 179.655H383.561L382.435 170.026C382.13 168.335 382.39 166.591 383.175 165.063C383.962 163.615 384.986 162.311 386.205 161.203C387.54 159.98 388.958 158.852 390.45 157.826C391.988 156.753 393.455 155.583 394.842 154.322C396.189 153.094 397.347 151.673 398.279 150.107C399.245 148.418 399.729 146.496 399.679 144.551C399.728 143.376 399.51 142.205 399.042 141.127C398.573 140.048 397.867 139.089 396.976 138.322C395.178 136.771 392.793 135.998 389.82 136.003C387.963 135.969 386.112 136.219 384.331 136.744C383.01 137.154 381.728 137.682 380.501 138.322C379.435 138.892 378.524 139.418 377.768 139.892C377.142 140.338 376.402 140.595 375.635 140.633C374.944 140.655 374.261 140.484 373.663 140.138C373.065 139.793 372.575 139.287 372.249 138.677L367.886 131.833ZM378.998 201.529C378.992 200.279 379.236 199.039 379.714 197.883C380.192 196.727 380.896 195.678 381.783 194.796C382.668 193.938 383.706 193.252 384.842 192.774C387.289 191.786 390.024 191.786 392.472 192.774C393.62 193.246 394.669 193.932 395.561 194.796C396.901 196.143 397.811 197.857 398.175 199.722C398.539 201.587 398.341 203.518 397.605 205.27C397.127 206.403 396.426 207.429 395.544 208.286C394.662 209.144 393.618 209.816 392.472 210.263C390.017 211.211 387.297 211.211 384.842 210.263C383.704 209.809 382.666 209.135 381.79 208.278C380.914 207.421 380.217 206.399 379.738 205.27C379.231 204.081 378.976 202.8 378.99 201.507L378.998 201.529Z" fill="#9F9CFF"/>
<path d="M154.13 39.6919H67.6853C56.0259 39.6919 46.5741 49.1437 46.5741 60.8031V130.248C46.5741 141.907 56.0259 151.359 67.6853 151.359H154.13C165.79 151.359 175.241 141.907 175.241 130.248V60.8031C175.241 49.1437 165.79 39.6919 154.13 39.6919Z" fill="#DDE2F8"/>
<path d="M164.567 43.936C167.338 47.9932 168.818 52.7934 168.812 57.7065V123.329C168.81 129.057 166.533 134.55 162.483 138.6C158.432 142.651 152.94 144.927 147.211 144.929H64.611C59.6968 144.935 54.8961 143.453 50.8406 140.677C53.0828 143.968 56.0952 146.662 59.6157 148.524C63.1362 150.385 67.0583 151.359 71.0407 151.359H150.819C157.302 151.359 163.52 148.783 168.104 144.199C172.688 139.615 175.263 133.397 175.263 126.914V64.1361C175.261 60.1524 174.286 56.2295 172.422 52.7089C170.557 49.1882 167.861 46.1766 164.567 43.936Z" fill="#CED3F8"/>
<path d="M108.797 110.751H106.493C106.332 107.424 106.546 104.09 107.13 100.811C107.624 98.618 108.95 95.5958 111.108 91.7439C112.839 88.809 114.252 85.6975 115.323 82.4624C116.055 79.6411 116.394 76.732 116.33 73.8179C116.33 68.5092 115.281 64.5981 113.182 62.0845C111.083 59.5709 108.597 58.3141 105.722 58.3141C103.751 58.2472 101.816 58.8591 100.241 60.0474C99.1224 60.9289 98.5595 61.8401 98.5595 62.803C98.7179 63.8624 99.1073 64.8739 99.7002 65.766C101.414 68.8376 102.271 71.4524 102.271 73.6105C102.294 74.5216 102.128 75.4278 101.784 76.2717C101.44 77.1157 100.925 77.8792 100.271 78.5142C99.6166 79.1639 98.8376 79.6742 97.9807 80.0141C97.1238 80.3541 96.2069 80.5167 95.2854 80.492C94.2359 80.5154 93.1933 80.317 92.2257 79.9098C91.2582 79.5026 90.3875 78.8958 89.6705 78.129C88.8994 77.2877 88.3021 76.3023 87.9131 75.2294C87.5241 74.1564 87.3511 73.0172 87.4039 71.8771C87.4039 67.1709 89.4434 63.0425 93.5224 59.4919C97.6014 55.9413 103.298 54.1684 110.611 54.1734C118.369 54.1734 124.276 56.0178 128.33 59.7067C130.258 61.3585 131.802 63.4116 132.854 65.7224C133.905 68.0332 134.44 70.5458 134.419 73.0846C134.444 76.8277 133.35 80.493 131.278 83.6105C129.184 86.8155 125.128 90.376 119.108 94.2921C115.068 96.9242 112.414 99.2674 111.145 101.322C109.856 103.381 109.056 106.522 108.797 110.751ZM108.3 119.492C110.516 119.506 112.658 120.287 114.363 121.702C116.068 123.116 117.23 125.078 117.651 127.253C118.073 129.428 117.728 131.682 116.675 133.632C115.623 135.581 113.927 137.106 111.877 137.946C109.827 138.786 107.549 138.891 105.431 138.241C103.313 137.592 101.485 136.229 100.259 134.384C99.0323 132.539 98.4827 130.326 98.7037 128.121C98.9246 125.917 99.9023 123.857 101.471 122.292C102.36 121.383 103.426 120.665 104.603 120.184C105.78 119.702 107.043 119.467 108.315 119.492H108.3Z" fill="#6B67E9"/>
<path d="M164.901 237.574C182.908 237.574 196.093 248.226 196.093 263.441V264.078C196.093 278.656 186.708 284.997 177.323 289.056L174.538 290.197C171.367 291.589 170.353 293.367 170.353 297.175V301.738H155.767V296.278C155.767 288.034 158.301 282.834 166.293 279.411L168.96 278.271C177.071 274.723 181.382 271.552 181.382 264.197C181.382 256.204 174.538 251.263 164.901 251.263C154.878 251.263 147.123 256.204 147.123 265.967V269.523H132.56V265.337C132.56 247.974 146.634 237.574 164.901 237.574ZM162.997 307.945C169.338 307.945 174.027 312.508 174.027 318.849C174.027 325.315 169.338 329.878 162.997 329.878C156.782 329.878 152.093 325.315 152.093 318.849C152.051 317.406 152.305 315.969 152.838 314.628C153.371 313.286 154.173 312.068 155.194 311.048C156.215 310.027 157.434 309.226 158.776 308.694C160.118 308.162 161.554 307.909 162.997 307.952V307.945Z" fill="#362E94"/>
<path d="M303.182 0.595215C315.642 0.595215 324.76 7.95822 324.76 18.4842V18.9212C324.76 29.0102 318.271 33.3954 311.782 36.2028L309.849 37.0176C307.627 37.9806 306.96 39.2399 306.96 41.8399V44.9954H296.871V41.2028C296.871 35.4991 298.627 31.9065 304.153 29.5361L305.99 28.7509C311.605 26.2916 314.59 24.099 314.59 19.0101C314.59 13.4842 309.849 10.0693 303.182 10.0693C296.256 10.0693 290.908 13.4842 290.908 20.2398V22.6916H280.819V19.8027C280.819 7.78784 290.538 0.595215 303.182 0.595215ZM301.871 52.2473C303.375 52.2385 304.848 52.677 306.102 53.5071C307.356 54.3372 308.335 55.5214 308.915 56.9092C309.495 58.297 309.648 59.8258 309.357 61.3014C309.066 62.7769 308.343 64.1325 307.279 65.196C306.216 66.2595 304.86 66.9828 303.385 67.274C301.909 67.5653 300.38 67.4114 298.992 66.8317C297.605 66.2521 296.42 65.273 295.59 64.0189C294.76 62.7647 294.322 61.2921 294.331 59.7881C294.304 58.7906 294.481 57.7982 294.851 56.8713C295.22 55.9444 295.775 55.1025 296.48 54.397C297.186 53.6914 298.028 53.1369 298.954 52.7673C299.881 52.3978 300.874 52.2208 301.871 52.2473Z" fill="#20196F"/>
<path d="M254.056 161.403C244.604 174.033 213.041 198.596 206.648 204.092C200.256 209.589 189.419 218.87 205.819 219.5C223.322 219.5 249.434 205.055 257.004 192.478C264.575 179.9 254.056 161.403 254.056 161.403Z" fill="#ED9F00"/>
<path d="M240.723 155.685C237.256 161.404 185.085 210.671 198.063 218.048C207.434 223.367 217.9 214.256 223.152 206.419C226.745 201.056 248.508 165.211 248.997 161.9C246.53 160.892 240.723 155.685 240.723 155.685Z" fill="#FFD03E"/>
<path d="M240.841 155.122C239.36 155.7 233.7 162.922 233.7 162.922C233.76 164.922 234.441 167.885 236.967 169.589C240.019 171.574 244.537 170.796 246.434 169.722C247.537 167.174 249.397 163.181 250.486 160.604C251.923 157.181 240.841 155.122 240.841 155.122Z" fill="#ED9F00"/>
<path d="M220.241 507.39C221.723 507.39 223.567 509.027 223.811 510.776H226.515C228.141 507.616 228.578 503.978 227.745 500.524C226.856 496.901 225.93 497.768 224.982 498.716C222.834 500.464 214.063 501.057 213.374 498.109C211.108 498.457 187.804 505.213 187.804 507.368C187.804 510.857 190.552 510.842 192.419 510.842C214.471 510.82 211.552 509.472 220.241 507.39Z" fill="#362E94"/>
<path d="M215.723 494.427C216.463 491.101 226.093 488.59 225.597 494.427C225.466 495.685 225.641 496.956 226.108 498.131C223.96 499.887 203.886 506.131 200.574 501.835C202.893 500.561 215.723 497.953 215.723 494.427Z" fill="#F7D3C9"/>
<path d="M227.338 263.596C215.56 351.182 215.56 435.331 215.56 493.79H225.93C228.797 486.672 244.997 425.642 244.997 392.375C254.212 364.227 274.242 277.619 276.249 263.596H227.338ZM289.153 507.39C290.635 507.39 292.486 509.027 292.723 510.775H295.427C297.053 507.616 297.49 503.978 296.657 500.524C295.768 496.901 294.842 497.768 293.894 498.716C291.753 500.464 282.975 501.057 282.286 498.109C280.02 498.457 256.716 505.212 256.716 507.368C256.716 510.857 259.464 510.842 261.331 510.842C283.39 510.82 280.464 509.472 289.153 507.39Z" fill="#362E94"/>
<path d="M284.657 494.427C285.398 491.101 295.027 488.59 294.531 494.427C294.4 495.685 294.575 496.956 295.042 498.131C292.894 499.887 272.82 506.131 269.509 501.835C271.812 500.561 284.664 497.953 284.657 494.427Z" fill="#F7D3C9"/>
<path d="M286.834 263.596C294.182 286.671 289.73 338.619 287.412 385.279C295.664 414.553 294.819 467.501 294.819 493.79H284.449C278.619 479.301 236.834 291.167 232.893 263.596H286.834Z" fill="#6B67E9"/>
<path d="M273.16 162.27C275.331 165.122 251.56 170.233 249.879 169.352C249.049 168.922 249.138 165.552 249.686 163.974C253.108 159.448 251.953 155.589 251.708 152.952C245.323 154.492 242.723 151.285 242.323 142.078C241.267 142.205 240.198 141.983 239.279 141.448C239.16 140.189 241.323 137.092 241.064 134.211C240.595 130.823 240.523 127.393 240.849 123.989C241.316 119.233 246.205 111.166 257.249 111.107C270.183 111.026 274.094 119.737 274.723 130.855C275.412 143.196 259.383 144.233 273.16 162.27Z" fill="#F7D3C9"/>
<path d="M286.834 263.596H227.338C230.456 251.544 233.604 237.915 230.656 226.085C228.515 217.529 221.36 209.789 221.864 207.707C224.827 195.522 243.849 173.929 249.686 164.003C249.669 165.65 249.83 167.295 250.167 168.907C256.027 167.129 265.227 164.566 273.13 162.3C289.131 185.344 285.634 237.759 286.834 263.596Z" fill="#9491EB"/>
<path d="M253.96 167.744L257.523 175.359L272.316 162.514L253.96 167.744Z" fill="white"/>
<path d="M232.226 263.448C239.634 230.974 233.323 219.744 229.574 212.988C228.271 210.655 227.241 208.811 227.248 206.803C227.248 202.477 235.537 189.655 245.552 174.596C247.212 172.099 248.752 169.781 249.997 167.862C250.049 168.188 250.1 168.507 250.167 168.877L251.137 168.588C249.908 170.485 248.382 172.773 246.693 175.344C239.493 186.166 228.619 202.529 228.611 206.811C228.611 208.455 229.515 210.085 230.767 212.329C234.604 219.218 241.019 230.737 233.589 263.596H232.9L232.226 263.448Z" fill="#FFD03E"/>
<path d="M249.693 164.944L245.604 170.211C245.604 170.211 247.671 165.137 249.871 162.463C250.252 162.153 250.661 161.88 251.093 161.648C250.849 162.307 249.693 164.944 249.693 164.944Z" fill="white"/>
<path d="M278.686 167.729C289.753 180.7 314.983 208.404 314.983 227.996C314.983 244.145 295.198 278.285 288.168 285.308C285.472 282.604 280.76 277.226 280.76 277.226C290.879 262.108 295.131 239.285 295.338 229.507C293.235 223.041 282.286 210.1 271.486 199.3C260.686 188.5 257.331 182.715 259.227 175.892C261.123 169.07 272.405 160.411 278.686 167.729Z" fill="#FFD03E"/>
<path d="M279.612 278.263C277.152 278.263 275.538 278.359 273.36 280.537C275.538 281.678 288.138 286.796 288.138 286.796L279.612 278.263Z" fill="#F7D3C9"/>
<path d="M288.212 287.301C288.212 287.301 279.049 277.73 278.36 277.197C279.817 274.702 281.456 272.318 283.264 270.063C285.219 271.589 295.286 280.271 295.33 280.693C294.464 281.708 288.212 287.301 288.212 287.301Z" fill="#9491EB"/>
<path d="M239.7 119.922C238.649 125.277 242.53 132.618 252.589 134.381C264.656 136.492 262.886 143.677 260.53 148.292C256.493 156.189 267.938 167.552 276.508 172.885C287.982 180.004 302.19 178.463 310.486 170.418C322.338 158.922 306.56 152.114 294.116 152.129C288.486 152.129 279.804 147.174 280.73 139.729C281.523 133.322 281.471 125.974 279.701 120.603C275.997 109.396 267.552 103.359 257.167 104.307C246.782 105.255 241.56 110.507 239.7 119.922Z" fill="#362E94"/>
<path d="M245.479 151.173C250.664 150.529 257.479 146.144 258.256 147.062C259.034 147.981 252.205 153.114 250.708 153.67C250.997 157.981 250.123 161.077 248.042 163.003C245.271 165.603 240.234 164.766 239.819 159.566C239.723 158.359 240.486 150.373 243.427 148.559C244.138 150.181 244.442 151.299 245.479 151.173Z" fill="#E8B7AA"/>
<path d="M501.124 31.0914L491.436 27.2396C491.063 27.0925 490.658 27.0458 490.261 27.1043C489.865 27.1628 489.491 27.3244 489.176 27.5729L481.028 34.0322C480.709 34.282 480.462 34.6114 480.311 34.9873C480.16 35.3631 480.111 35.7721 480.169 36.173L481.65 46.4841C481.709 46.8804 481.871 47.2543 482.119 47.5688C482.367 47.8832 482.693 48.1273 483.065 48.2767L492.761 52.1286C493.13 52.2674 493.527 52.3096 493.916 52.2512C494.305 52.1929 494.673 52.0359 494.984 51.7953L503.132 45.3286C503.446 45.0806 503.69 44.7542 503.838 44.3824C503.986 44.0105 504.034 43.6062 503.976 43.21L502.495 32.8915C502.441 32.4987 502.287 32.1264 502.047 31.811C501.807 31.4956 501.489 31.2477 501.124 31.0914Z" fill="#FFD03E"/>
<path d="M394.168 531.879L405.42 547.835C405.698 548.229 406.075 548.543 406.513 548.746C406.951 548.949 407.434 549.032 407.915 548.989C408.395 548.945 408.856 548.776 409.25 548.498C409.644 548.22 409.958 547.843 410.161 547.405L418.353 529.679C418.555 529.242 418.639 528.758 418.595 528.278C418.551 527.798 418.382 527.338 418.105 526.944C417.827 526.55 417.451 526.236 417.013 526.034C416.576 525.831 416.093 525.747 415.613 525.79L396.161 527.553C395.68 527.597 395.219 527.767 394.825 528.045C394.43 528.324 394.116 528.702 393.914 529.14C393.712 529.579 393.629 530.063 393.674 530.544C393.718 531.025 393.889 531.485 394.168 531.879Z" fill="#807DFB"/>
<path d="M0.166159 204.218L6.26989 219.404C6.42083 219.778 6.66768 220.107 6.98568 220.356C7.30368 220.605 7.68163 220.767 8.08163 220.824C8.48162 220.881 8.88958 220.831 9.26457 220.681C9.63956 220.531 9.96839 220.284 10.2181 219.967L20.3144 207.085C20.5642 206.767 20.726 206.389 20.7835 205.989C20.8411 205.589 20.7923 205.181 20.6422 204.806C20.4921 204.43 20.2459 204.101 19.9283 203.851C19.6107 203.601 19.233 203.439 18.8329 203.381L2.62543 201.078C2.2252 201.021 1.81715 201.071 1.44226 201.222C1.06737 201.373 0.738837 201.62 0.489647 201.938C0.240456 202.257 0.079382 202.635 0.022601 203.035C-0.03418 203.435 0.0153295 203.843 0.166159 204.218Z" fill="#9491EB"/>
</svg>
