<svg width="25" height="25" viewBox="0 0 25 25" fill="none" xmlns="http://www.w3.org/2000/svg">
<rect x="0.71875" y="0.329102" width="24" height="24" rx="12" fill="white"/>
<path fill-rule="evenodd" clip-rule="evenodd" d="M6.71875 12.3291C6.71875 9.93234 6.71875 8.73396 7.28988 7.8708C7.54491 7.48536 7.87501 7.15527 8.26045 6.90023C9.12361 6.3291 10.322 6.3291 12.7188 6.3291C15.1155 6.3291 16.3139 6.3291 17.177 6.90023C17.5625 7.15527 17.8926 7.48536 18.1476 7.8708C18.7188 8.73396 18.7188 9.93234 18.7188 12.3291C18.7188 14.7259 18.7188 15.9242 18.1476 16.7874C17.8926 17.1728 17.5625 17.5029 17.177 17.758C16.3139 18.3291 15.1155 18.3291 12.7188 18.3291C10.322 18.3291 9.12361 18.3291 8.26045 17.758C7.87501 17.5029 7.54491 17.1728 7.28988 16.7874C6.71875 15.9242 6.71875 14.7259 6.71875 12.3291ZM15.8249 12.3293C15.8249 14.0448 14.4342 15.4355 12.7186 15.4355C11.0031 15.4355 9.61237 14.0448 9.61237 12.3293C9.61237 10.6137 11.0031 9.22298 12.7186 9.22298C14.4342 9.22298 15.8249 10.6137 15.8249 12.3293ZM12.7186 14.3846C13.8538 14.3846 14.774 13.4644 14.774 12.3293C14.774 11.1941 13.8538 10.2739 12.7186 10.2739C11.5835 10.2739 10.6633 11.1941 10.6633 12.3293C10.6633 13.4644 11.5835 14.3846 12.7186 14.3846ZM15.9476 9.7968C16.3507 9.7968 16.6775 9.47002 16.6775 9.06692C16.6775 8.66382 16.3507 8.33704 15.9476 8.33704C15.5445 8.33704 15.2177 8.66382 15.2177 9.06692C15.2177 9.47002 15.5445 9.7968 15.9476 9.7968Z" fill="#232323"/>
</svg>
