<svg width="25" height="25" viewBox="0 0 25 25" fill="none" xmlns="http://www.w3.org/2000/svg">
<rect x="0.71875" y="0.329102" width="24" height="24" rx="12" fill="white"/>
<path d="M6.71875 7.94231C6.71875 7.5575 6.85389 7.24004 7.12416 6.98993C7.39442 6.7398 7.74578 6.61475 8.17821 6.61475C8.60292 6.61475 8.94655 6.73787 9.2091 6.98415C9.47936 7.23812 9.6145 7.56904 9.6145 7.97694C9.6145 8.34635 9.48323 8.65418 9.22068 8.90046C8.95041 9.15443 8.5952 9.28141 8.15504 9.28141H8.14346C7.71875 9.28141 7.37512 9.15443 7.11257 8.90046C6.85002 8.64649 6.71875 8.3271 6.71875 7.94231ZM6.86933 18.0433V10.3319H9.44076V18.0433H6.86933ZM10.8655 18.0433H13.4369V13.7374C13.4369 13.468 13.4678 13.2602 13.5296 13.114C13.6377 12.8524 13.8018 12.6311 14.0218 12.4502C14.2419 12.2694 14.518 12.179 14.85 12.179C15.7149 12.179 16.1473 12.76 16.1473 13.9221V18.0433H18.7188V13.622C18.7188 12.4829 18.4485 11.6191 17.9079 11.0303C17.3674 10.4416 16.6531 10.1472 15.7651 10.1472C14.7689 10.1472 13.9929 10.5743 13.4369 11.4286V11.4517H13.4253L13.4369 11.4286V10.3319H10.8655C10.8809 10.5782 10.8886 11.3439 10.8886 12.6292C10.8886 13.9144 10.8809 15.7191 10.8655 18.0433Z" fill="#232323"/>
</svg>
