<svg width="153" height="57" viewBox="0 0 153 57" fill="none" xmlns="http://www.w3.org/2000/svg">
<g clip-path="url(#clip0_33_1233)">
<mask id="mask0_33_1233" style="mask-type:luminance" maskUnits="userSpaceOnUse" x="0" y="0" width="153" height="57">
<path d="M152.446 0.417969H0.71875V56.3289H152.446V0.417969Z" fill="white"/>
</mask>
<g mask="url(#mask0_33_1233)">
<path d="M49.8103 10.7112V31.9292C49.8103 40.4915 43.9756 47.9774 35.6569 50.0827L10.912 56.3289V46.1527L33.5713 40.4211C37.1332 39.5322 39.6169 36.3273 39.6169 32.678C39.6169 30.9233 39.0313 29.2624 38.0471 27.9291C37.0396 26.5955 35.6335 25.5429 33.9463 25.0515L28.2054 23.3205L39.6169 20.4196V10.2434L16.9576 15.9748C13.3959 16.8638 10.912 20.0687 10.912 23.7182C10.912 25.4727 11.4978 27.1336 12.482 28.4671C13.4896 29.8004 14.8955 30.8299 16.5827 31.3445L22.3237 33.099L10.912 35.9765V46.1527L0.71875 48.7259V9.89245L36.9692 0.745516C43.4833 -0.915434 49.8103 3.99723 49.8103 10.7112Z" fill="white"/>
<path d="M72.915 18.0802C72.9385 19.0628 72.6572 19.9517 72.1417 20.7471C71.6028 21.5659 70.7827 22.1975 69.7281 22.642C68.6502 23.1099 67.2913 23.3438 65.6977 23.3438C64.2918 23.3438 62.9326 23.1566 61.6204 22.7591C60.3785 22.3846 59.1835 21.8466 58.1523 21.215L59.3944 18.5481L59.4177 18.5715C60.3083 19.1095 61.2689 19.6008 62.347 19.9517C63.4249 20.3026 64.5262 20.4898 65.6041 20.4898C66.9398 20.4898 67.9942 20.3026 68.6502 19.8815C69.3065 19.4604 69.611 18.9692 69.5875 18.2907C69.5641 17.7761 69.3766 17.3784 69.0017 17.0509C68.6268 16.7234 68.0878 16.4661 67.5254 16.2789C66.963 16.0918 66.1665 15.8812 65.1822 15.6473C63.7998 15.3198 62.6515 15.0156 61.8078 14.6881C60.9878 14.384 60.2379 13.9162 59.5584 13.1909C58.9257 12.5125 58.5507 11.5768 58.5273 10.4071C58.5038 9.42455 58.7851 8.53559 59.3006 7.74021C59.8395 6.89804 60.6598 6.28979 61.6907 5.82192C62.7686 5.35404 64.1278 5.12012 65.6977 5.12012C66.799 5.12012 67.9004 5.26049 68.9782 5.51781C69.8219 5.72836 71.0638 6.10266 72.1182 6.68749L70.9702 9.35437H70.9467C69.9625 8.8397 68.7908 8.46541 68.2753 8.32506C67.4083 8.09111 66.5649 7.97414 65.7681 7.97414C64.4558 7.97414 63.4014 8.1613 62.7686 8.60578C62.136 9.05026 61.8313 9.56492 61.8547 10.2901C61.8782 10.8048 62.0657 11.2025 62.4406 11.5066C62.8155 11.8341 63.3545 12.068 63.9169 12.2552C64.4793 12.4423 65.276 12.6529 66.2601 12.8868C67.6193 13.1909 68.7206 13.4951 69.611 13.8226C70.4312 14.1267 71.2044 14.618 71.8606 15.3198C72.5166 16.0216 72.8915 16.9339 72.915 18.0802Z" fill="white"/>
<path d="M84.5841 23.1332L84.6075 23.1799H88.4974L82.6158 15.6939L88.0521 10.2432H84.1622L78.14 15.8109V5.30713H74.9531V23.1799H78.14V19.7644L80.2489 17.776L84.5841 23.1332Z" fill="white"/>
<path d="M98.5974 19.25C97.707 20.139 96.5822 20.6068 95.2232 20.6068C94.1453 20.6068 93.2547 20.3495 92.5283 19.8115C91.8488 19.3202 91.4037 18.6184 91.2163 17.7762H101.175V17.6826C101.198 17.3083 101.222 17.0042 101.222 16.7937C101.222 15.4836 100.941 14.3139 100.378 13.308C99.816 12.3021 99.0427 11.5067 98.0584 10.9686C97.0744 10.4072 95.9261 10.1265 94.6843 10.1265C93.4189 10.1265 92.2707 10.4072 91.2395 10.9686C90.232 11.5301 89.4118 12.3255 88.8494 13.3314C88.2872 14.3373 87.9824 15.4836 87.9824 16.7235C87.9824 17.9867 88.2872 19.133 88.8728 20.139C89.4587 21.1449 90.3024 21.9403 91.3803 22.5018C92.4581 23.0631 93.7235 23.344 95.1294 23.344C96.2307 23.344 97.2384 23.1567 98.1288 22.8059C99.0192 22.4549 99.7691 21.9169 100.331 21.2385L100.402 21.1683L98.6678 19.1798L98.5974 19.25ZM92.3643 13.4484C92.9971 12.9571 93.7939 12.6998 94.7077 12.6998C95.6451 12.6998 96.4416 12.9571 97.0744 13.4484C97.6603 13.9162 98.0352 14.5245 98.1757 15.2731H91.2163C91.3803 14.5245 91.7552 13.9162 92.3643 13.4484Z" fill="white"/>
<path d="M109.493 23.1331C110.008 22.9928 110.454 22.7588 110.805 22.4782L110.852 22.408L109.938 20.0686L109.821 20.1622C109.399 20.4897 108.86 20.6535 108.228 20.6535C107.689 20.6535 107.267 20.4897 107.009 20.209C106.728 19.9049 106.587 19.4604 106.587 18.8755V12.84H109.985V10.2433H106.587V7.43604H103.377V18.9457C103.377 20.3727 103.775 21.4722 104.549 22.2208C105.322 22.9693 106.447 23.3438 107.876 23.3438C108.438 23.3438 108.977 23.2737 109.493 23.1331Z" fill="white"/>
<path d="M114.39 22.5018C115.444 23.0631 116.663 23.344 117.999 23.344C119.24 23.344 120.365 23.0865 121.326 22.5485C122.287 22.0338 123.036 21.2618 123.529 20.3027L123.576 20.2091L121.115 18.7587L121.068 18.8523C120.717 19.4137 120.271 19.8582 119.732 20.1389C119.194 20.4196 118.608 20.56 117.975 20.56C116.874 20.56 115.983 20.2091 115.28 19.5073C114.577 18.8055 114.226 17.8697 114.226 16.7C114.226 15.5304 114.577 14.5946 115.28 13.8928C115.983 13.191 116.897 12.8401 117.975 12.8401C118.608 12.8401 119.194 12.9804 119.732 13.2612C120.271 13.5419 120.717 13.9864 121.068 14.5478L121.115 14.6414L123.576 13.2144L123.529 13.1208C123.036 12.1617 122.31 11.3897 121.349 10.875C120.389 10.3603 119.264 10.103 117.999 10.103C116.663 10.103 115.444 10.3837 114.39 10.9452C113.335 11.5067 112.492 12.302 111.906 13.2846C111.32 14.2905 111.016 15.4368 111.016 16.7C111.016 17.9633 111.32 19.1096 111.906 20.1155C112.492 21.1448 113.335 21.9402 114.39 22.5018Z" fill="white"/>
<path d="M132.504 10.1028C131.614 10.1028 130.77 10.2432 130.044 10.5239C129.388 10.7812 128.849 11.1088 128.38 11.5533V5.30713H125.17V23.1799H128.38V16.6297C128.38 15.4366 128.685 14.5009 129.294 13.8692C129.903 13.2376 130.747 12.9101 131.801 12.9101C132.739 12.9101 133.465 13.1908 133.957 13.7289C134.449 14.2669 134.707 15.0857 134.707 16.1618V23.1799H137.917V15.7875C137.917 13.916 137.425 12.489 136.441 11.5533C135.457 10.5941 134.145 10.1028 132.504 10.1028Z" fill="white"/>
<path d="M73.6181 32.5373C72.7981 31.1805 71.6498 30.1279 70.1735 29.4026C69.4237 29.0283 68.6269 28.7477 67.7834 28.5839C66.9399 28.3966 66.026 28.3032 65.0887 28.3032H58.9023V46.1758H65.0887C66.9866 46.1758 68.6973 45.8016 70.1735 45.0765C71.6498 44.3277 72.8215 43.2751 73.6181 41.9418C74.4383 40.6082 74.8367 39.0175 74.8367 37.263C74.8367 35.4616 74.4383 33.8709 73.6181 32.5373ZM70.7359 40.4444C70.197 41.3568 69.4237 42.0821 68.4394 42.5967C67.4554 43.088 66.2837 43.3452 64.9714 43.3452H62.1596V31.1104H64.9714C66.2837 31.1104 67.4319 31.3678 68.4394 31.8589C69.4237 32.3503 70.197 33.0754 70.7359 33.9877C71.2749 34.9003 71.5327 35.9996 71.5327 37.2161C71.556 38.4325 71.2749 39.5321 70.7359 40.4444Z" fill="white"/>
<path d="M80.5539 33.2393H77.3438V46.1527H80.5539V33.2393Z" fill="white"/>
<path d="M93.8396 34.7366C93.3475 34.222 92.7617 33.8242 92.1054 33.5436C91.3323 33.2395 90.4886 33.0757 89.5513 33.0757C88.3329 33.0757 87.2081 33.3329 86.2238 33.8477C85.2398 34.3623 84.443 35.1108 83.8806 36.0466C83.3182 36.9824 83.0137 38.0818 83.0137 39.2985C83.0137 40.5149 83.2948 41.6143 83.8806 42.5735C84.443 43.5326 85.2398 44.2579 86.2238 44.7959C87.2081 45.3105 88.3329 45.5912 89.5513 45.5912C90.4419 45.5912 91.262 45.4508 91.9884 45.1467C92.6446 44.8895 93.2068 44.5151 93.699 44.0474V44.4449C93.699 45.7083 93.371 46.6673 92.7617 47.2755C92.1289 47.8837 91.1214 48.1878 89.7622 48.1878C88.8953 48.1878 88.0518 48.0475 87.2081 47.7669C86.3646 47.4862 85.6849 47.1352 85.146 46.6908L85.0523 46.5971L83.5995 49.03L83.6697 49.1004C84.3961 49.6852 85.31 50.1531 86.4348 50.4572C87.5361 50.7613 88.7078 50.9251 89.9497 50.9251C94.566 50.9251 96.9326 48.6325 96.9326 44.1175V33.2395H93.8865V34.7366H93.8396ZM92.6913 36.7952C93.3942 37.4269 93.7459 38.2925 93.7459 39.2985C93.7459 40.3511 93.3942 41.1933 92.6913 41.8482C91.9884 42.5034 91.0745 42.8307 89.9966 42.8307C88.8953 42.8307 87.9814 42.5034 87.2785 41.8482C86.5755 41.1933 86.2238 40.3511 86.2238 39.2985C86.2238 38.269 86.5755 37.4269 87.2785 36.7952C87.9814 36.1403 88.8953 35.8361 89.9966 35.8361C91.0979 35.8361 92.0118 36.1635 92.6913 36.7952Z" fill="white"/>
<path d="M103.261 33.2393H100.051V46.1527H103.261V33.2393Z" fill="white"/>
<path d="M112.868 43.1583C112.446 43.4859 111.907 43.6497 111.274 43.6497C110.735 43.6497 110.313 43.4859 110.056 43.205C109.775 42.9009 109.634 42.4565 109.634 41.8717V35.8362H113.032V33.2395H109.634V30.4321H106.424V41.9419C106.424 43.3688 106.822 44.4684 107.595 45.2169C108.369 45.9655 109.493 46.3398 110.923 46.3398C111.485 46.3398 112.024 46.2696 112.54 46.1293C113.055 45.9889 113.5 45.755 113.852 45.4743L113.922 45.4274L113.008 43.0882L112.868 43.1583Z" fill="white"/>
<path d="M125.006 34.4559C123.998 33.5436 122.522 33.0757 120.624 33.0757C119.569 33.0757 118.562 33.216 117.624 33.4734C116.687 33.7541 115.867 34.1518 115.188 34.6664L115.117 34.7131L116.382 37.0761L116.476 36.9824C116.945 36.6082 117.507 36.2806 118.187 36.0701C118.866 35.8594 119.569 35.7425 120.272 35.7425C121.28 35.7425 122.053 35.9765 122.569 36.4209C123.084 36.8653 123.318 37.5437 123.318 38.3859V38.4563H120.132C118.281 38.4563 116.921 38.8071 116.054 39.5089C115.187 40.2108 114.742 41.1698 114.742 42.3396C114.742 43.0881 114.953 43.7665 115.352 44.3747C115.75 44.9597 116.312 45.4276 117.062 45.7784C117.788 46.106 118.656 46.2698 119.616 46.2698C120.577 46.2698 121.421 46.1292 122.1 45.8251C122.686 45.5679 123.154 45.2169 123.506 44.7959V46.106H126.529V38.5497C126.529 36.7719 126.013 35.3682 125.006 34.4559ZM123.318 41.006V41.4739C123.318 42.2926 122.873 43.0647 122.147 43.4624C121.585 43.7665 120.928 43.9303 120.202 43.9303C119.476 43.9303 118.89 43.79 118.468 43.5093C118.07 43.2284 117.882 42.8542 117.882 42.3863C117.882 41.3803 118.679 41.006 120.343 41.006H123.318Z" fill="white"/>
<path d="M132.597 28.2798H129.387V46.1526H132.597V28.2798Z" fill="white"/>
<path d="M80.5539 28.2798H77.3438V31.4847H80.5539V28.2798Z" fill="white"/>
<path d="M103.261 28.2798H100.051V31.4847H103.261V28.2798Z" fill="white"/>
<path d="M149.353 10.2432L145.393 19.4837L141.48 10.2432H138.129L143.776 23.2501L141.761 27.9521H144.877L152.446 10.2432H149.353Z" fill="white"/>
</g>
</g>
<defs>
<clipPath id="clip0_33_1233">
<rect width="151.727" height="55.9109" fill="white" transform="translate(0.71875 0.417969)"/>
</clipPath>
</defs>
</svg>
