<svg width="173" height="64" viewBox="0 0 173 64" fill="none" xmlns="http://www.w3.org/2000/svg">
<mask id="mask0_33_587" style="mask-type:luminance" maskUnits="userSpaceOnUse" x="0" y="0" width="173" height="64">
<path d="M172.818 0H0.71875V63.418H172.818V0Z" fill="white"/>
</mask>
<g mask="url(#mask0_33_587)">
<path d="M56.4018 11.676V35.7429C56.4018 45.4548 49.7837 53.9458 40.3481 56.3338L12.2806 63.4187V51.8761L37.9825 45.3749C42.0226 44.3667 44.8398 40.7315 44.8398 36.5922C44.8398 34.6018 44.1753 32.718 43.0591 31.2056C41.9161 29.693 40.3215 28.499 38.4077 27.9417L31.8958 25.9782L44.8398 22.6879V11.1453L19.138 17.6463C15.098 18.6546 12.2806 22.2899 12.2806 26.4294C12.2806 28.4195 12.9451 30.3033 14.0614 31.8159C15.2043 33.3283 16.799 34.4959 18.7127 35.0796L25.2246 37.0697L12.2806 40.3336V51.8761L0.71875 54.7949V10.7473L41.8365 0.372175C49.2254 -1.51179 56.4018 4.06049 56.4018 11.676Z" fill="#232323"/>
<path d="M82.6081 20.0342C82.6347 21.1487 82.3156 22.157 81.731 23.0592C81.1197 23.9879 80.1893 24.7043 78.9933 25.2085C77.7707 25.7392 76.229 26.0046 74.4217 26.0046C72.8271 26.0046 71.2854 25.7922 69.7969 25.3413C68.3883 24.9165 67.0327 24.3063 65.8633 23.5899L67.2719 20.5649L67.2985 20.5915C68.3085 21.2018 69.3983 21.759 70.6209 22.157C71.8435 22.555 73.0927 22.7673 74.3153 22.7673C75.8303 22.7673 77.0266 22.555 77.7707 22.0774C78.5148 21.5998 78.8605 21.0425 78.8339 20.273C78.8073 19.6893 78.5946 19.2382 78.1694 18.8667C77.7441 18.4952 77.1328 18.2033 76.4949 17.991C75.857 17.7788 74.9532 17.54 73.837 17.2746C72.2687 16.9031 70.9666 16.5582 70.0096 16.1867C69.0794 15.8417 68.2289 15.311 67.4579 14.4885C66.7404 13.719 66.3152 12.6576 66.2886 11.3308C66.2619 10.2164 66.581 9.20805 67.1657 8.30587C67.777 7.35063 68.7071 6.66071 69.8768 6.13002C71.0994 5.59932 72.641 5.33398 74.4217 5.33398C75.6709 5.33398 76.9201 5.4932 78.1427 5.78507C79.0997 6.0239 80.5084 6.44845 81.7043 7.1118L80.4019 10.1368H80.3753C79.2591 9.553 77.9301 9.12844 77.3454 8.96925C76.3621 8.70389 75.4051 8.57121 74.5016 8.57121C73.0131 8.57121 71.8169 8.7835 71.0994 9.28766C70.3816 9.79182 70.0362 10.3756 70.0628 11.1982C70.0894 11.7819 70.302 12.233 70.7273 12.578C71.1526 12.9494 71.7639 13.2148 72.4018 13.4271C73.0397 13.6393 73.9432 13.8782 75.0596 14.1435C76.6013 14.4885 77.8505 14.8334 78.8605 15.2049C79.7906 15.5498 80.6678 16.1071 81.4119 16.9031C82.1562 17.6992 82.5815 18.734 82.6081 20.0342Z" fill="#232323"/>
<path d="M95.8459 25.7659L95.8725 25.8189H100.284L93.6131 17.3278L99.7796 11.1452H95.3674L88.5367 17.4605V5.54639H84.9219V25.8189H88.5367V21.9449L90.9287 19.6894L95.8459 25.7659Z" fill="#232323"/>
<path d="M111.739 21.3612C110.729 22.3696 109.454 22.9003 107.912 22.9003C106.689 22.9003 105.679 22.6084 104.855 21.9981C104.085 21.4408 103.58 20.6448 103.367 19.6895H114.663V19.5834C114.69 19.1589 114.716 18.8139 114.716 18.5751C114.716 17.0892 114.397 15.7624 113.759 14.6214C113.122 13.4804 112.245 12.5782 111.128 11.9679C110.012 11.3311 108.71 11.0127 107.301 11.0127C105.865 11.0127 104.563 11.3311 103.394 11.9679C102.251 12.6048 101.32 13.507 100.683 14.648C100.045 15.7889 99.6992 17.0892 99.6992 18.4955C99.6992 19.9284 100.045 21.2286 100.709 22.3696C101.374 23.5106 102.33 24.4127 103.553 25.0496C104.776 25.6863 106.211 26.0049 107.806 26.0049C109.055 26.0049 110.198 25.7925 111.208 25.3946C112.218 24.9964 113.068 24.3862 113.706 23.6167L113.786 23.5371L111.819 21.2816L111.739 21.3612ZM104.669 14.7806C105.387 14.2234 106.291 13.9315 107.327 13.9315C108.39 13.9315 109.294 14.2234 110.012 14.7806C110.676 15.3113 111.102 16.0012 111.261 16.8503H103.367C103.553 16.0012 103.978 15.3113 104.669 14.7806Z" fill="#232323"/>
<path d="M124.099 25.7656C124.684 25.6065 125.189 25.3411 125.587 25.0228L125.641 24.9432L124.604 22.2897L124.471 22.3958C123.993 22.7673 123.382 22.953 122.664 22.953C122.053 22.953 121.574 22.7673 121.282 22.4489C120.963 22.1039 120.803 21.5998 120.803 20.9364V14.0904H124.657V11.1451H120.803V7.96094H117.162V21.016C117.162 22.6346 117.614 23.8818 118.491 24.7309C119.368 25.5799 120.644 26.0046 122.265 26.0046C122.903 26.0046 123.514 25.9251 124.099 25.7656Z" fill="#232323"/>
<path d="M129.653 25.0494C130.849 25.686 132.232 26.0046 133.747 26.0046C135.155 26.0046 136.431 25.7126 137.521 25.1023C138.61 24.5185 139.461 23.6429 140.019 22.555L140.072 22.4488L137.282 20.8037L137.228 20.9098C136.83 21.5466 136.325 22.0508 135.713 22.3692C135.102 22.6876 134.438 22.8468 133.72 22.8468C132.471 22.8468 131.461 22.4488 130.663 21.6528C129.866 20.8568 129.467 19.7954 129.467 18.4686C129.467 17.1419 129.866 16.0805 130.663 15.2845C131.461 14.4884 132.497 14.0904 133.72 14.0904C134.438 14.0904 135.102 14.2496 135.713 14.568C136.325 14.8864 136.83 15.3906 137.228 16.0274L137.282 16.1336L140.072 14.515L140.019 14.4088C139.461 13.3209 138.637 12.4452 137.547 11.8615C136.458 11.2777 135.182 10.9858 133.747 10.9858C132.232 10.9858 130.849 11.3042 129.653 11.9411C128.457 12.5779 127.501 13.4801 126.836 14.5945C126.172 15.7355 125.826 17.0357 125.826 18.4686C125.826 19.9015 126.172 21.2017 126.836 22.3427C127.501 23.5102 128.457 24.4124 129.653 25.0494Z" fill="#232323"/>
<path d="M150.198 10.986C149.188 10.986 148.231 11.1452 147.407 11.4636C146.663 11.7555 146.052 12.127 145.52 12.6312V5.54639H141.879V25.8189H145.52V18.3892C145.52 17.0359 145.866 15.9745 146.557 15.2581C147.248 14.5417 148.205 14.1702 149.401 14.1702C150.464 14.1702 151.288 14.4886 151.846 15.0989C152.404 15.7092 152.697 16.6379 152.697 17.8585V25.8189H156.338V17.4339C156.338 15.3112 155.78 13.6925 154.663 12.6312C153.547 11.5432 152.059 10.986 150.198 10.986Z" fill="#232323"/>
<path d="M83.4065 36.4325C82.4761 34.8935 81.1739 33.6995 79.4994 32.8769C78.6489 32.4523 77.7451 32.134 76.7883 31.9482C75.8314 31.7358 74.7948 31.6299 73.7316 31.6299H66.7148V51.9022H73.7316C75.8846 51.9022 77.8249 51.4777 79.4994 50.6553C81.1739 49.806 82.5027 48.612 83.4065 47.0996C84.3366 45.5871 84.7885 43.7828 84.7885 41.7927C84.7885 39.7494 84.3366 37.9451 83.4065 36.4325ZM80.1373 45.4013C79.526 46.4361 78.6489 47.2588 77.5325 47.8425C76.416 48.3998 75.0873 48.6916 73.5988 48.6916H70.4092V34.814H73.5988C75.0873 34.814 76.3897 35.1059 77.5325 35.663C78.6489 36.2203 79.526 37.0428 80.1373 38.0776C80.7486 39.1127 81.0408 40.3597 81.0408 41.7395C81.0674 43.1192 80.7486 44.3664 80.1373 45.4013Z" fill="#232323"/>
<path d="M91.2742 37.2285H87.6328V51.8758H91.2742V37.2285Z" fill="#232323"/>
<path d="M106.344 38.9273C105.786 38.3436 105.121 37.8925 104.377 37.5742C103.5 37.2292 102.543 37.0435 101.48 37.0435C100.098 37.0435 98.822 37.3352 97.7056 37.9191C96.5895 38.5028 95.6857 39.3519 95.0478 40.4133C94.4099 41.4748 94.0645 42.7217 94.0645 44.1018C94.0645 45.4815 94.3833 46.7285 95.0478 47.8166C95.6857 48.9044 96.5895 49.727 97.7056 50.3374C98.822 50.921 100.098 51.2394 101.48 51.2394C102.49 51.2394 103.42 51.0802 104.244 50.7353C104.988 50.4435 105.626 50.0188 106.184 49.4883V49.9392C106.184 51.3722 105.812 52.46 105.121 53.1499C104.404 53.8398 103.261 54.1847 101.719 54.1847C100.736 54.1847 99.7788 54.0255 98.822 53.7072C97.8651 53.3889 97.0943 52.9907 96.483 52.4866L96.3768 52.3804L94.7287 55.14L94.8086 55.2198C95.6325 55.8831 96.6691 56.4138 97.9449 56.7587C99.1941 57.1037 100.523 57.2895 101.932 57.2895C107.168 57.2895 109.852 54.6891 109.852 49.5679V37.2292H106.397V38.9273H106.344ZM105.041 41.2624C105.839 41.9789 106.237 42.9607 106.237 44.1018C106.237 45.2958 105.839 46.251 105.041 46.9939C104.244 47.737 103.208 48.1083 101.985 48.1083C100.736 48.1083 99.6992 47.737 98.9016 46.9939C98.1043 46.251 97.7056 45.2958 97.7056 44.1018C97.7056 42.9341 98.1043 41.9789 98.9016 41.2624C99.6992 40.5195 100.736 40.1746 101.985 40.1746C103.234 40.1746 104.271 40.5459 105.041 41.2624Z" fill="#232323"/>
<path d="M117.028 37.2285H113.387V51.8758H117.028V37.2285Z" fill="#232323"/>
<path d="M127.926 48.4798C127.448 48.8514 126.837 49.0372 126.119 49.0372C125.508 49.0372 125.029 48.8514 124.737 48.5328C124.418 48.1879 124.259 47.6838 124.259 47.0205V40.1746H128.112V37.2292H124.259V34.0449H120.617V47.1001C120.617 48.7186 121.069 49.9658 121.946 50.8149C122.823 51.6639 124.099 52.0884 125.72 52.0884C126.358 52.0884 126.97 52.0089 127.554 51.8497C128.139 51.6905 128.644 51.4252 129.043 51.1068L129.123 51.0536L128.086 48.4003L127.926 48.4798Z" fill="#232323"/>
<path d="M141.694 38.609C140.551 37.5742 138.877 37.0435 136.724 37.0435C135.528 37.0435 134.385 37.2026 133.322 37.4946C132.259 37.8129 131.329 38.2641 130.558 38.8478L130.478 38.9007L131.913 41.5809L132.019 41.4748C132.551 41.0502 133.189 40.6787 133.96 40.4399C134.73 40.2009 135.528 40.0684 136.325 40.0684C137.468 40.0684 138.345 40.3337 138.93 40.8378C139.515 41.342 139.781 42.1114 139.781 43.0667V43.1465H136.166C134.066 43.1465 132.525 43.5444 131.541 44.3405C130.558 45.1366 130.053 46.2244 130.053 47.5512C130.053 48.4002 130.292 49.1697 130.744 49.8596C131.196 50.5231 131.833 51.0539 132.684 51.4518C133.508 51.8233 134.491 52.0091 135.581 52.0091C136.671 52.0091 137.628 51.8497 138.399 51.5047C139.063 51.213 139.595 50.8149 139.993 50.3374V51.8233H143.422V43.2524C143.422 41.236 142.837 39.6438 141.694 38.609ZM139.781 46.0386V46.5693C139.781 47.498 139.275 48.3736 138.452 48.8248C137.814 49.1697 137.069 49.3555 136.246 49.3555C135.422 49.3555 134.757 49.1963 134.279 48.878C133.827 48.5594 133.614 48.1349 133.614 47.6042C133.614 46.4631 134.518 46.0386 136.405 46.0386H139.781Z" fill="#232323"/>
<path d="M150.305 31.603H146.664V51.8756H150.305V31.603Z" fill="#232323"/>
<path d="M91.2742 31.603H87.6328V35.2382H91.2742V31.603Z" fill="#232323"/>
<path d="M117.028 31.603H113.387V35.2382H117.028V31.603Z" fill="#232323"/>
<path d="M169.309 11.145L164.817 21.6262L160.379 11.145H156.578L162.984 25.8984L160.698 31.2317H164.233L172.818 11.145H169.309Z" fill="#232323"/>
</g>
</svg>
