<svg width="25" height="25" viewBox="0 0 25 25" fill="none" xmlns="http://www.w3.org/2000/svg">
<rect x="0.71875" y="0.329102" width="24" height="24" rx="12" fill="white"/>
<path d="M14.7368 7.4631V7.46094H15.2995L15.505 7.502C15.6421 7.52866 15.7665 7.56359 15.8784 7.60681C15.9902 7.65004 16.0984 7.70047 16.203 7.75809C16.3076 7.81572 16.4024 7.87444 16.4876 7.93422C16.572 7.9933 16.6477 8.05597 16.7148 8.12224C16.7811 8.18924 16.8847 8.20652 17.0253 8.17411C17.166 8.14169 17.3175 8.09666 17.4798 8.03904C17.6421 7.98141 17.8026 7.91658 17.9613 7.84454C18.12 7.7725 18.2167 7.72676 18.2513 7.70731C18.2852 7.68714 18.3033 7.67634 18.3054 7.67489L18.3076 7.67165L18.3184 7.66624L18.3292 7.66084L18.34 7.65544L18.3509 7.65004L18.353 7.64679L18.3563 7.64463L18.3595 7.64247L18.3617 7.63923L18.3725 7.63599L18.3833 7.63383L18.3812 7.65004L18.3779 7.66624L18.3725 7.68245L18.3671 7.69866L18.3617 7.70947L18.3563 7.72027L18.3509 7.73648C18.3472 7.74729 18.3436 7.76169 18.34 7.7797C18.3364 7.79772 18.3022 7.86975 18.2372 7.99581C18.1723 8.12188 18.0912 8.24975 17.9938 8.37941C17.8964 8.50908 17.8091 8.60704 17.7319 8.67333C17.654 8.74032 17.6024 8.78714 17.5772 8.8138C17.5519 8.84117 17.5213 8.86638 17.4852 8.88944L17.4311 8.9251L17.4203 8.9305L17.4095 8.9359L17.4073 8.93914L17.4041 8.94131L17.4008 8.94347L17.3986 8.94671L17.3878 8.95211L17.377 8.95751L17.3748 8.96076L17.3716 8.96292L17.3683 8.96508L17.3662 8.96832L17.364 8.97156L17.3608 8.97372L17.3575 8.97588L17.3554 8.97913H17.4095L17.7124 8.91429C17.9144 8.87107 18.1074 8.81885 18.2913 8.75761L18.5835 8.66036L18.616 8.64955L18.6322 8.64415L18.643 8.63875L18.6538 8.63335L18.6646 8.62794L18.6755 8.62254L18.6971 8.6193L18.7188 8.61714V8.63875L18.7133 8.64091L18.7079 8.64415L18.7058 8.64739L18.7025 8.64955L18.6993 8.65172L18.6971 8.65496L18.695 8.6582L18.6917 8.66036L18.6885 8.66252L18.6863 8.66576L18.6841 8.669L18.6809 8.67117L18.6755 8.68197L18.6701 8.69278L18.6668 8.69494C18.6654 8.6971 18.6196 8.75832 18.5294 8.87863C18.4392 8.99966 18.3905 9.06088 18.3833 9.06233C18.3761 9.06449 18.366 9.07529 18.353 9.09474C18.3408 9.11491 18.2643 9.19524 18.1236 9.33571C17.983 9.47618 17.8452 9.60116 17.7103 9.71066C17.5747 9.82088 17.5061 9.95631 17.5047 10.117C17.5025 10.2769 17.4942 10.4577 17.4798 10.6594C17.4654 10.8611 17.4383 11.079 17.3986 11.3131C17.359 11.5473 17.2977 11.812 17.2147 12.1073C17.1317 12.4027 17.0307 12.6909 16.9117 12.9718C16.7927 13.2527 16.6683 13.5049 16.5384 13.7282C16.4086 13.9515 16.2895 14.1406 16.1813 14.2955C16.0731 14.4504 15.9631 14.5962 15.8513 14.7331C15.7395 14.87 15.5981 15.0241 15.4271 15.1956C15.2555 15.3663 15.1617 15.46 15.1458 15.4765C15.1292 15.4924 15.0585 15.5515 14.9337 15.6537C14.8097 15.7568 14.6762 15.8598 14.5334 15.9628C14.3913 16.0651 14.2607 16.1504 14.1417 16.2189C14.0226 16.2873 13.8791 16.3655 13.711 16.4534C13.5436 16.542 13.3626 16.6241 13.1678 16.6997C12.973 16.7754 12.7674 16.8456 12.551 16.9104C12.3346 16.9753 12.1254 17.0257 11.9234 17.0617C11.7215 17.0977 11.4924 17.1284 11.2363 17.1536L10.8522 17.1914V17.1968H10.1489V17.1914L10.0569 17.186C9.99558 17.1824 9.94508 17.1788 9.9054 17.1752C9.86574 17.1716 9.71604 17.1518 9.45635 17.1157C9.19666 17.0797 8.99287 17.0437 8.84499 17.0077C8.69712 16.9717 8.47709 16.9032 8.18494 16.8024C7.89278 16.7015 7.64283 16.5996 7.43507 16.4966C7.22804 16.3943 7.09819 16.3295 7.04553 16.3021C6.99359 16.2754 6.93516 16.2423 6.87024 16.2027L6.77285 16.1432L6.7707 16.14L6.76744 16.1378L6.7642 16.1357L6.76203 16.1324L6.75121 16.127L6.74039 16.1216L6.73824 16.1184L6.73498 16.1162L6.73173 16.1141L6.72957 16.1108L6.72742 16.1076L6.72416 16.1054H6.71875V16.0838L6.72957 16.086L6.74039 16.0892L6.78908 16.0946C6.82155 16.0982 6.90992 16.1036 7.05419 16.1108C7.19847 16.118 7.35175 16.118 7.51406 16.1108C7.67637 16.1036 7.84229 16.0874 8.01181 16.0622C8.18133 16.037 8.38151 15.9938 8.61235 15.9325C8.84319 15.8713 9.05528 15.7985 9.24861 15.7143C9.44121 15.6293 9.57827 15.5659 9.65979 15.5241C9.74058 15.483 9.86393 15.4067 10.0298 15.295L10.2787 15.1275L10.2809 15.1243L10.2841 15.1221L10.2874 15.12L10.2895 15.1167L10.2917 15.1135L10.2949 15.1113L10.2982 15.1091L10.3004 15.1059L10.3112 15.1027L10.322 15.1005L10.3242 15.0897L10.3274 15.0789L10.3307 15.0767L10.3328 15.0735L10.2463 15.0681C10.1885 15.0645 10.1326 15.0609 10.0785 15.0573C10.0244 15.0537 9.93967 15.0375 9.82425 15.0087C9.70884 14.9798 9.5844 14.9366 9.45094 14.879C9.31749 14.8214 9.18764 14.7529 9.0614 14.6737C8.93517 14.5944 8.84391 14.5285 8.78764 14.4759C8.7321 14.4241 8.65996 14.3506 8.57123 14.2555C8.48323 14.1597 8.40676 14.0614 8.34183 13.9605C8.27691 13.8597 8.21488 13.7433 8.15573 13.6115L8.06591 13.4148L8.0605 13.3986L8.05509 13.3824L8.05184 13.3716L8.04968 13.3608L8.06591 13.363L8.08214 13.3662L8.20117 13.3824C8.28052 13.3932 8.40496 13.3968 8.57448 13.3932C8.744 13.3896 8.86122 13.3824 8.92614 13.3716C8.99107 13.3608 9.03075 13.3536 9.04517 13.35L9.06681 13.3446L9.09386 13.3392L9.12091 13.3338L9.12308 13.3305L9.12632 13.3284L9.12958 13.3262L9.13173 13.323L9.11009 13.3176L9.08845 13.3122L9.06681 13.3068L9.04517 13.3014L9.02353 13.296C9.00911 13.2924 8.98386 13.2852 8.94779 13.2744C8.91172 13.2635 8.81434 13.2239 8.65563 13.1555C8.49694 13.0871 8.37069 13.0204 8.27691 12.9556C8.1829 12.8906 8.09325 12.8195 8.00856 12.7427C7.92416 12.6649 7.83147 12.5648 7.73047 12.4423C7.62948 12.3199 7.53932 12.1776 7.45996 12.0155C7.38061 11.8534 7.3211 11.6985 7.28142 11.5509C7.2419 11.404 7.21583 11.254 7.20352 11.1024L7.18403 10.8755L7.19485 10.8777L7.20568 10.8809L7.2165 10.8863L7.22732 10.8917L7.23814 10.8971L7.24896 10.9025L7.41668 10.9782C7.5285 11.0286 7.66736 11.0718 7.83327 11.1078C7.99919 11.1438 8.09837 11.1637 8.13083 11.1673L8.17953 11.1727H8.27691L8.27476 11.1694L8.2715 11.1673L8.26825 11.1651L8.26609 11.1619L8.26394 11.1586L8.26068 11.1565L8.25743 11.1543L8.25527 11.1511L8.24445 11.1456L8.23363 11.1402L8.23147 11.137L8.22822 11.1348L8.22497 11.1327L8.22281 11.1294L8.21199 11.124L8.20117 11.1186L8.19901 11.1154C8.19685 11.1139 8.16583 11.0909 8.10595 11.0462C8.04679 11.0009 7.98476 10.9421 7.91983 10.8701C7.85491 10.7981 7.78999 10.7224 7.72506 10.6432C7.66002 10.5638 7.60209 10.4788 7.55193 10.3893C7.50144 10.2992 7.44806 10.1847 7.39179 10.0456C7.33625 9.90733 7.29405 9.76793 7.26519 9.62746C7.23634 9.48699 7.22011 9.34832 7.2165 9.21145C7.21289 9.07457 7.2165 8.95751 7.22732 8.86026C7.23814 8.76301 7.25978 8.65315 7.29224 8.53069C7.3247 8.40823 7.3716 8.27857 7.43291 8.14169L7.52488 7.93638L7.53029 7.92018L7.5357 7.90397L7.53896 7.90181L7.54111 7.89856L7.54328 7.89532L7.54652 7.89316L7.54978 7.89532L7.55193 7.89856L7.5541 7.90181L7.55734 7.90397L7.5606 7.90613L7.56275 7.90937L7.56492 7.91261L7.56816 7.91477L7.57357 7.92558L7.57898 7.93638L7.58224 7.93855L7.58439 7.94179L7.73047 8.10387C7.82786 8.21193 7.94328 8.33259 8.07673 8.46586C8.21019 8.59912 8.28413 8.66828 8.29855 8.67333C8.31299 8.67909 8.33101 8.69565 8.35265 8.72303C8.3743 8.74969 8.44644 8.81344 8.56907 8.91429C8.69171 9.01514 8.85221 9.13221 9.05058 9.26547C9.24896 9.39874 9.46898 9.53021 9.71063 9.65988C9.9523 9.78955 10.212 9.9066 10.4897 10.0111C10.7674 10.1155 10.9622 10.1839 11.074 10.2164C11.1858 10.2488 11.377 10.2902 11.6475 10.3406C11.918 10.3911 12.1218 10.4235 12.2589 10.4379C12.3959 10.4523 12.4897 10.4606 12.5402 10.4627L12.616 10.4649L12.6138 10.4487L12.6105 10.4325L12.5889 10.2974C12.5745 10.2074 12.5673 10.0813 12.5673 9.91921C12.5673 9.75713 12.5799 9.60765 12.6051 9.47078C12.6304 9.33391 12.6683 9.19524 12.7188 9.05476C12.7692 8.91429 12.8187 8.80155 12.867 8.71655C12.9161 8.63227 12.9803 8.5361 13.0596 8.42804C13.139 8.31998 13.2418 8.20833 13.368 8.09307C13.4942 7.9778 13.6385 7.87515 13.8008 7.78511C13.9631 7.69506 14.1128 7.62662 14.2499 7.5798C14.3869 7.53298 14.5023 7.50236 14.5961 7.48795C14.6899 7.47355 14.7368 7.46526 14.7368 7.4631Z" fill="#232323"/>
</svg>
