<svg width="25" height="25" viewBox="0 0 25 25" fill="none" xmlns="http://www.w3.org/2000/svg">
<rect x="0.71875" y="0.329102" width="24" height="24" rx="12" fill="white"/>
<path d="M13.0116 16.9824L10.3035 16.9318C9.42662 16.9141 8.5476 16.9493 7.68796 16.7666C6.38026 16.4936 6.28761 15.155 6.19067 14.0322C6.0571 12.4536 6.10881 10.8464 6.36088 9.28103C6.50318 8.40268 7.06321 7.87857 7.92926 7.82153C10.8528 7.61455 13.7958 7.63908 16.7129 7.73564C17.021 7.7445 17.3312 7.79288 17.635 7.84796C19.1345 8.11657 19.1711 9.6335 19.2683 10.9105C19.3652 12.2006 19.3243 13.4974 19.139 14.7788C18.9904 15.8397 18.706 16.7294 17.5057 16.8153C16.0019 16.9276 14.5325 17.018 13.0245 16.9892C13.0245 16.9824 13.0159 16.9824 13.0116 16.9824ZM11.4195 14.2964C12.5527 13.6315 13.6644 12.9776 14.7912 12.3171C13.6558 11.6522 12.5462 10.9983 11.4195 10.3378V14.2964Z" fill="#232323"/>
</svg>
